<?xml version="1.0"?>
<svg xmlns="http://www.w3.org/2000/svg" version="1" viewBox="0 0 24 24" enable-background="new 0 0 24 24">
    <path d="M 12 2 C 7.5551716 2 3.5479853 4.5651726 4.03125 10.5625 C 4.0240664 10.710383 4 10.847628 4 11 C 4 11.195389 4.047196 11.440626 4.0625 11.65625 C 3.487457 12.08972 3 12.671178 3 13.5 C 3 14.676456 3.8762935 15.513371 4.96875 15.78125 C 5.5641956 17.325191 6.395913 18.789472 7.5 19.90625 C 8.718503 21.138759 10.266667 22 12 22 C 13.733333 22 15.26572 21.137257 16.46875 19.90625 C 17.564392 18.785128 18.40158 17.317959 19.03125 15.78125 C 20.123706 15.513371 21 14.676456 21 13.5 C 21 12.671178 20.512543 12.08972 19.9375 11.65625 C 19.966312 11.464981 20 11.340276 20 11 C 20 10.695644 19.997073 10.411286 19.96875 10.125 C 20.173514 4.4416141 16.334939 2 12 2 z M 9.59375 7.40625 C 11.094833 10.135492 15.261687 8.4424656 17.75 9.1875 C 17.822398 9.4347569 17.898907 9.7091862 17.9375 10 L 6.0625 10 C 6.0707967 9.9374962 6.0838523 9.8728949 6.09375 9.8125 C 7.2450439 8.9144531 8.15 9.675 9.59375 7.40625 z M 8 11.5 L 11 12.5 C 11 13.3 10.3 14 9.5 14 C 8.7 14 8 13.1 8 11.5 z M 16 11.5 C 16 13.1 15.3 14 14.5 14 C 13.7 14 13 13.3 13 12.5 L 16 11.5 z M 17.90625 12.59375 L 17.90625 12.8125 L 18.59375 13.0625 C 18.877522 13.157091 19 13.27619 19 13.5 C 19 13.716667 18.716667 14 18.5 14 L 18.3125 14 L 17.59375 14 L 17.375 14.65625 C 16.815083 16.149363 15.97822 17.531007 15.03125 18.5 C 14.08428 19.468993 13.066667 20 12 20 C 10.933333 20 9.893997 19.467491 8.9375 18.5 C 7.981003 17.532509 7.1627168 16.160858 6.65625 14.6875 L 6.40625 14 L 5.6875 14 L 5.5 14 C 5.2833333 14 5 13.716667 5 13.5 C 5 13.27619 5.1224778 13.157091 5.40625 13.0625 L 6.09375 12.8125 L 7.40625 15 C 7.80625 15.6 8.39375 16 9.09375 16 C 9.59375 16 10.2 15.80625 10.5 15.40625 L 11.3125 14.59375 C 11.7125 14.19375 12.19375 14.19375 12.59375 14.59375 L 13.40625 15.40625 C 13.80625 15.80625 14.3125 16 14.8125 16 C 15.5125 16 16.2 15.6 16.5 15 L 17.8125 12.8125 L 17.90625 12.59375 z"/>
</svg>
